<svg version="1.1" xmlns="http://www.w3.org/2000/svg" xmlns:xlink="http://www.w3.org/1999/xlink" x="0px" y="0px"
	 viewBox="0 0 54 40.3" style="enable-background:new 0 0 54 40.3;" xml:space="preserve">
<style type="text/css">
	.st0{opacity:0.66;}
</style>
<g>
	<path class="st0" d="M27,1C15.3,1,5.5,9.2,3,20.1c2.5,11,12.3,19.1,24,19.1s21.5-8.2,24-19.1C48.5,9.2,38.7,1,27,1z M27,32.4
		c-6.8,0-12.3-5.5-12.3-12.3S20.2,7.8,27,7.8c6.8,0,12.3,5.5,12.3,12.3S33.8,32.4,27,32.4z"/>
	<path d="M26.5,13"/>
	<path d="M27.4,11.5"/>
	<path d="M18.4,20.1c0,0.1,0,0.3,0,0.4"/>
	<path d="M19.8,19.6"/>
	<path d="M27.4,11.5L27.4,11.5C27.4,11.5,27.3,11.5,27.4,11.5c-0.6,0-1,0.4-1,1c0,0.2,0,0.3,0.1,0.5c0.3,0.7,0.5,1.4,0.5,2.2
		c0,2.7-2.2,4.9-4.9,4.9c-0.8,0-1.6-0.2-2.2-0.5l0,0c-0.1-0.1-0.3-0.1-0.5-0.1c-0.5,0-1,0.4-1,1c0,0,0,0,0,0l0,0
		c0.2,4.6,4,8.2,8.6,8.2c4.8,0,8.6-3.9,8.6-8.6C35.6,15.5,32,11.7,27.4,11.5z"/>
</g>
</svg>
